<mxfile host="app.diagrams.net" agent="Mozilla/5.0 (Macintosh; Intel Mac OS X 10_15_7) AppleWebKit/537.36 (KHTML, like Gecko) Chrome/133.0.0.0 Safari/537.36" version="26.1.0">
  <diagram name="第 1 页" id="pQjM2lFAa4SCByMr8R09">
    <mxGraphModel dx="2069" dy="785" grid="1" gridSize="10" guides="1" tooltips="1" connect="1" arrows="1" fold="1" page="1" pageScale="1" pageWidth="827" pageHeight="1169" math="0" shadow="0">
      <root>
        <mxCell id="0" />
        <mxCell id="1" parent="0" />
        <mxCell id="of5xqRFu-SOXzQBDKbFj-1" value="" style="group" vertex="1" connectable="0" parent="1">
          <mxGeometry x="160" y="320" width="460" height="590" as="geometry" />
        </mxCell>
        <mxCell id="of5xqRFu-SOXzQBDKbFj-29" value="" style="rounded=0;whiteSpace=wrap;html=1;dashed=1;dashPattern=8 8;" vertex="1" parent="of5xqRFu-SOXzQBDKbFj-1">
          <mxGeometry x="130" y="-20" width="230" height="220" as="geometry" />
        </mxCell>
        <mxCell id="of5xqRFu-SOXzQBDKbFj-3" style="edgeStyle=orthogonalEdgeStyle;rounded=0;orthogonalLoop=1;jettySize=auto;html=1;entryX=0;entryY=0.5;entryDx=0;entryDy=0;" edge="1" parent="of5xqRFu-SOXzQBDKbFj-1" source="of5xqRFu-SOXzQBDKbFj-7" target="of5xqRFu-SOXzQBDKbFj-8">
          <mxGeometry relative="1" as="geometry">
            <Array as="points">
              <mxPoint x="110" y="86.20370370370371" />
              <mxPoint x="110" y="18.14814814814815" />
            </Array>
          </mxGeometry>
        </mxCell>
        <mxCell id="of5xqRFu-SOXzQBDKbFj-4" style="edgeStyle=orthogonalEdgeStyle;rounded=0;orthogonalLoop=1;jettySize=auto;html=1;entryX=0;entryY=0.5;entryDx=0;entryDy=0;" edge="1" parent="of5xqRFu-SOXzQBDKbFj-1" source="of5xqRFu-SOXzQBDKbFj-7" target="of5xqRFu-SOXzQBDKbFj-9">
          <mxGeometry relative="1" as="geometry">
            <Array as="points">
              <mxPoint x="110" y="86.20370370370371" />
              <mxPoint x="110" y="63.51851851851852" />
            </Array>
          </mxGeometry>
        </mxCell>
        <mxCell id="of5xqRFu-SOXzQBDKbFj-5" style="edgeStyle=orthogonalEdgeStyle;rounded=0;orthogonalLoop=1;jettySize=auto;html=1;entryX=0;entryY=0.5;entryDx=0;entryDy=0;" edge="1" parent="of5xqRFu-SOXzQBDKbFj-1" source="of5xqRFu-SOXzQBDKbFj-7" target="of5xqRFu-SOXzQBDKbFj-10">
          <mxGeometry relative="1" as="geometry">
            <Array as="points">
              <mxPoint x="110" y="86.20370370370371" />
              <mxPoint x="110" y="113.42592592592592" />
            </Array>
          </mxGeometry>
        </mxCell>
        <mxCell id="of5xqRFu-SOXzQBDKbFj-6" style="edgeStyle=orthogonalEdgeStyle;rounded=0;orthogonalLoop=1;jettySize=auto;html=1;entryX=0;entryY=0.5;entryDx=0;entryDy=0;" edge="1" parent="of5xqRFu-SOXzQBDKbFj-1" source="of5xqRFu-SOXzQBDKbFj-7" target="of5xqRFu-SOXzQBDKbFj-11">
          <mxGeometry relative="1" as="geometry">
            <Array as="points">
              <mxPoint x="110" y="86.20370370370371" />
              <mxPoint x="110" y="163.33333333333337" />
            </Array>
          </mxGeometry>
        </mxCell>
        <mxCell id="of5xqRFu-SOXzQBDKbFj-7" value="7734200" style="text;strokeColor=none;align=center;fillColor=none;html=1;verticalAlign=middle;whiteSpace=wrap;rounded=0;" vertex="1" parent="of5xqRFu-SOXzQBDKbFj-1">
          <mxGeometry y="69.87037037037038" width="50" height="31.75925925925926" as="geometry" />
        </mxCell>
        <mxCell id="of5xqRFu-SOXzQBDKbFj-8" value="__p1_room(房间基本详情)" style="ellipse;whiteSpace=wrap;html=1;" vertex="1" parent="of5xqRFu-SOXzQBDKbFj-1">
          <mxGeometry x="160" width="170" height="36.2962962962963" as="geometry" />
        </mxCell>
        <mxCell id="of5xqRFu-SOXzQBDKbFj-9" value="getAccountCardInfo(账号模块)" style="ellipse;whiteSpace=wrap;html=1;" vertex="1" parent="of5xqRFu-SOXzQBDKbFj-1">
          <mxGeometry x="145" y="45.370370370370374" width="200" height="36.2962962962963" as="geometry" />
        </mxCell>
        <mxCell id="of5xqRFu-SOXzQBDKbFj-10" value="getWatchedShow(看过模块)" style="ellipse;whiteSpace=wrap;html=1;" vertex="1" parent="of5xqRFu-SOXzQBDKbFj-1">
          <mxGeometry x="145" y="95.27777777777777" width="200" height="36.2962962962963" as="geometry" />
        </mxCell>
        <mxCell id="of5xqRFu-SOXzQBDKbFj-11" value="。。。" style="ellipse;whiteSpace=wrap;html=1;" vertex="1" parent="of5xqRFu-SOXzQBDKbFj-1">
          <mxGeometry x="150" y="145.1851851851852" width="200" height="36.2962962962963" as="geometry" />
        </mxCell>
        <mxCell id="of5xqRFu-SOXzQBDKbFj-12" value="" style="group" vertex="1" connectable="0" parent="of5xqRFu-SOXzQBDKbFj-1">
          <mxGeometry x="-10" y="217.7777777777778" width="470" height="372.2222222222222" as="geometry" />
        </mxCell>
        <mxCell id="of5xqRFu-SOXzQBDKbFj-30" value="" style="rounded=0;whiteSpace=wrap;html=1;dashed=1;dashPattern=8 8;" vertex="1" parent="of5xqRFu-SOXzQBDKbFj-12">
          <mxGeometry x="135" y="-7.777777777777828" width="230" height="220" as="geometry" />
        </mxCell>
        <mxCell id="of5xqRFu-SOXzQBDKbFj-13" style="edgeStyle=orthogonalEdgeStyle;rounded=0;orthogonalLoop=1;jettySize=auto;html=1;entryX=0;entryY=0.5;entryDx=0;entryDy=0;" edge="1" parent="of5xqRFu-SOXzQBDKbFj-12" source="of5xqRFu-SOXzQBDKbFj-17" target="of5xqRFu-SOXzQBDKbFj-18">
          <mxGeometry relative="1" as="geometry">
            <Array as="points">
              <mxPoint x="110" y="98.51851851851853" />
              <mxPoint x="110" y="20.74074074074074" />
            </Array>
          </mxGeometry>
        </mxCell>
        <mxCell id="of5xqRFu-SOXzQBDKbFj-14" style="edgeStyle=orthogonalEdgeStyle;rounded=0;orthogonalLoop=1;jettySize=auto;html=1;entryX=0;entryY=0.5;entryDx=0;entryDy=0;" edge="1" parent="of5xqRFu-SOXzQBDKbFj-12" source="of5xqRFu-SOXzQBDKbFj-17" target="of5xqRFu-SOXzQBDKbFj-19">
          <mxGeometry relative="1" as="geometry">
            <Array as="points">
              <mxPoint x="110" y="98.51851851851853" />
              <mxPoint x="110" y="72.5925925925926" />
            </Array>
          </mxGeometry>
        </mxCell>
        <mxCell id="of5xqRFu-SOXzQBDKbFj-15" style="edgeStyle=orthogonalEdgeStyle;rounded=0;orthogonalLoop=1;jettySize=auto;html=1;entryX=0;entryY=0.5;entryDx=0;entryDy=0;" edge="1" parent="of5xqRFu-SOXzQBDKbFj-12" source="of5xqRFu-SOXzQBDKbFj-17" target="of5xqRFu-SOXzQBDKbFj-20">
          <mxGeometry relative="1" as="geometry">
            <Array as="points">
              <mxPoint x="110" y="98.51851851851853" />
              <mxPoint x="110" y="129.62962962962965" />
            </Array>
          </mxGeometry>
        </mxCell>
        <mxCell id="of5xqRFu-SOXzQBDKbFj-16" style="edgeStyle=orthogonalEdgeStyle;rounded=0;orthogonalLoop=1;jettySize=auto;html=1;entryX=0;entryY=0.5;entryDx=0;entryDy=0;" edge="1" parent="of5xqRFu-SOXzQBDKbFj-12" source="of5xqRFu-SOXzQBDKbFj-17" target="of5xqRFu-SOXzQBDKbFj-21">
          <mxGeometry relative="1" as="geometry">
            <Array as="points">
              <mxPoint x="110" y="98.51851851851853" />
              <mxPoint x="110" y="186.66666666666669" />
            </Array>
          </mxGeometry>
        </mxCell>
        <mxCell id="of5xqRFu-SOXzQBDKbFj-98" style="edgeStyle=orthogonalEdgeStyle;rounded=0;orthogonalLoop=1;jettySize=auto;html=1;" edge="1" parent="of5xqRFu-SOXzQBDKbFj-12">
          <mxGeometry relative="1" as="geometry">
            <mxPoint x="25" y="92.22222222222217" as="targetPoint" />
            <mxPoint x="25" y="92.22222222222217" as="sourcePoint" />
          </mxGeometry>
        </mxCell>
        <mxCell id="of5xqRFu-SOXzQBDKbFj-17" value="5440" style="text;strokeColor=none;align=center;fillColor=none;html=1;verticalAlign=middle;whiteSpace=wrap;rounded=0;" vertex="1" parent="of5xqRFu-SOXzQBDKbFj-12">
          <mxGeometry y="79.85185185185186" width="50" height="36.2962962962963" as="geometry" />
        </mxCell>
        <mxCell id="of5xqRFu-SOXzQBDKbFj-18" value="__p1_room(房间基本详情)" style="ellipse;whiteSpace=wrap;html=1;" vertex="1" parent="of5xqRFu-SOXzQBDKbFj-12">
          <mxGeometry x="160" width="170" height="41.48148148148148" as="geometry" />
        </mxCell>
        <mxCell id="of5xqRFu-SOXzQBDKbFj-19" value="getAccountCardInfo(账号模块)" style="ellipse;whiteSpace=wrap;html=1;" vertex="1" parent="of5xqRFu-SOXzQBDKbFj-12">
          <mxGeometry x="145" y="51.851851851851855" width="200" height="41.48148148148148" as="geometry" />
        </mxCell>
        <mxCell id="of5xqRFu-SOXzQBDKbFj-20" value="getWatchedShow(看过模块)" style="ellipse;whiteSpace=wrap;html=1;" vertex="1" parent="of5xqRFu-SOXzQBDKbFj-12">
          <mxGeometry x="145" y="108.8888888888889" width="200" height="41.48148148148148" as="geometry" />
        </mxCell>
        <mxCell id="of5xqRFu-SOXzQBDKbFj-21" value="。。。" style="ellipse;whiteSpace=wrap;html=1;" vertex="1" parent="of5xqRFu-SOXzQBDKbFj-12">
          <mxGeometry x="150" y="165.92592592592592" width="200" height="41.48148148148148" as="geometry" />
        </mxCell>
        <mxCell id="of5xqRFu-SOXzQBDKbFj-32" value="getInfoByRoom" style="text;strokeColor=none;align=center;fillColor=none;html=1;verticalAlign=middle;whiteSpace=wrap;rounded=0;" vertex="1" parent="of5xqRFu-SOXzQBDKbFj-12">
          <mxGeometry x="220" y="212.22222222222217" width="60" height="30" as="geometry" />
        </mxCell>
        <mxCell id="of5xqRFu-SOXzQBDKbFj-37" style="edgeStyle=orthogonalEdgeStyle;rounded=0;orthogonalLoop=1;jettySize=auto;html=1;entryX=1;entryY=0.5;entryDx=0;entryDy=0;" edge="1" parent="1" source="of5xqRFu-SOXzQBDKbFj-26" target="of5xqRFu-SOXzQBDKbFj-29">
          <mxGeometry relative="1" as="geometry">
            <Array as="points">
              <mxPoint x="750" y="410" />
            </Array>
          </mxGeometry>
        </mxCell>
        <mxCell id="of5xqRFu-SOXzQBDKbFj-26" value="app-room" style="rounded=1;whiteSpace=wrap;html=1;" vertex="1" parent="1">
          <mxGeometry x="690" y="850" width="120" height="60" as="geometry" />
        </mxCell>
        <mxCell id="of5xqRFu-SOXzQBDKbFj-39" style="edgeStyle=orthogonalEdgeStyle;rounded=0;orthogonalLoop=1;jettySize=auto;html=1;entryX=1;entryY=0.5;entryDx=0;entryDy=0;" edge="1" parent="1" source="of5xqRFu-SOXzQBDKbFj-27" target="of5xqRFu-SOXzQBDKbFj-29">
          <mxGeometry relative="1" as="geometry">
            <Array as="points">
              <mxPoint x="950" y="410" />
            </Array>
          </mxGeometry>
        </mxCell>
        <mxCell id="of5xqRFu-SOXzQBDKbFj-27" value="app-room" style="rounded=1;whiteSpace=wrap;html=1;" vertex="1" parent="1">
          <mxGeometry x="890" y="850" width="120" height="60" as="geometry" />
        </mxCell>
        <mxCell id="of5xqRFu-SOXzQBDKbFj-28" value="。。。" style="text;strokeColor=none;align=center;fillColor=none;html=1;verticalAlign=middle;whiteSpace=wrap;rounded=0;" vertex="1" parent="1">
          <mxGeometry x="810" y="860" width="60" height="30" as="geometry" />
        </mxCell>
        <mxCell id="of5xqRFu-SOXzQBDKbFj-31" value="getInfoByRoom" style="text;strokeColor=none;align=center;fillColor=none;html=1;verticalAlign=middle;whiteSpace=wrap;rounded=0;" vertex="1" parent="1">
          <mxGeometry x="370" y="270" width="60" height="30" as="geometry" />
        </mxCell>
        <mxCell id="of5xqRFu-SOXzQBDKbFj-36" style="edgeStyle=orthogonalEdgeStyle;rounded=0;orthogonalLoop=1;jettySize=auto;html=1;exitX=0.5;exitY=0;exitDx=0;exitDy=0;entryX=0.996;entryY=0.441;entryDx=0;entryDy=0;entryPerimeter=0;" edge="1" parent="1" source="of5xqRFu-SOXzQBDKbFj-26" target="of5xqRFu-SOXzQBDKbFj-30">
          <mxGeometry relative="1" as="geometry" />
        </mxCell>
        <mxCell id="of5xqRFu-SOXzQBDKbFj-40" value="写入缓存并续期6s" style="edgeLabel;html=1;align=center;verticalAlign=middle;resizable=0;points=[];" vertex="1" connectable="0" parent="of5xqRFu-SOXzQBDKbFj-36">
          <mxGeometry x="-0.5307" y="2" relative="1" as="geometry">
            <mxPoint as="offset" />
          </mxGeometry>
        </mxCell>
        <mxCell id="of5xqRFu-SOXzQBDKbFj-38" style="edgeStyle=orthogonalEdgeStyle;rounded=0;orthogonalLoop=1;jettySize=auto;html=1;entryX=0.996;entryY=0.445;entryDx=0;entryDy=0;entryPerimeter=0;" edge="1" parent="1" source="of5xqRFu-SOXzQBDKbFj-27" target="of5xqRFu-SOXzQBDKbFj-30">
          <mxGeometry relative="1" as="geometry">
            <Array as="points">
              <mxPoint x="950" y="628" />
            </Array>
          </mxGeometry>
        </mxCell>
        <mxCell id="of5xqRFu-SOXzQBDKbFj-46" value="写入缓存并续期6s" style="edgeLabel;html=1;align=center;verticalAlign=middle;resizable=0;points=[];" vertex="1" connectable="0" parent="of5xqRFu-SOXzQBDKbFj-38">
          <mxGeometry x="-0.6717" y="2" relative="1" as="geometry">
            <mxPoint as="offset" />
          </mxGeometry>
        </mxCell>
        <mxCell id="of5xqRFu-SOXzQBDKbFj-57" style="edgeStyle=orthogonalEdgeStyle;rounded=0;orthogonalLoop=1;jettySize=auto;html=1;entryX=0.5;entryY=0;entryDx=0;entryDy=0;" edge="1" parent="1" source="of5xqRFu-SOXzQBDKbFj-42" target="of5xqRFu-SOXzQBDKbFj-49">
          <mxGeometry relative="1" as="geometry" />
        </mxCell>
        <mxCell id="of5xqRFu-SOXzQBDKbFj-42" value="等待2s" style="rounded=0;whiteSpace=wrap;html=1;" vertex="1" parent="1">
          <mxGeometry x="325" y="1030" width="130" height="40" as="geometry" />
        </mxCell>
        <mxCell id="of5xqRFu-SOXzQBDKbFj-45" style="edgeStyle=orthogonalEdgeStyle;rounded=0;orthogonalLoop=1;jettySize=auto;html=1;entryX=1;entryY=0.5;entryDx=0;entryDy=0;" edge="1" parent="1" source="of5xqRFu-SOXzQBDKbFj-25" target="of5xqRFu-SOXzQBDKbFj-29">
          <mxGeometry relative="1" as="geometry">
            <Array as="points">
              <mxPoint x="590" y="410" />
            </Array>
          </mxGeometry>
        </mxCell>
        <mxCell id="of5xqRFu-SOXzQBDKbFj-25" value="app-room" style="rounded=1;whiteSpace=wrap;html=1;" vertex="1" parent="1">
          <mxGeometry x="530" y="850" width="120" height="60" as="geometry" />
        </mxCell>
        <mxCell id="of5xqRFu-SOXzQBDKbFj-44" style="edgeStyle=orthogonalEdgeStyle;rounded=0;orthogonalLoop=1;jettySize=auto;html=1;entryX=1;entryY=0.441;entryDx=0;entryDy=0;entryPerimeter=0;" edge="1" parent="1" source="of5xqRFu-SOXzQBDKbFj-25" target="of5xqRFu-SOXzQBDKbFj-30">
          <mxGeometry relative="1" as="geometry">
            <Array as="points">
              <mxPoint x="590" y="627" />
            </Array>
          </mxGeometry>
        </mxCell>
        <mxCell id="of5xqRFu-SOXzQBDKbFj-47" value="写入缓存并续期6s" style="edgeLabel;html=1;align=center;verticalAlign=middle;resizable=0;points=[];" vertex="1" connectable="0" parent="of5xqRFu-SOXzQBDKbFj-44">
          <mxGeometry x="-0.2819" y="1" relative="1" as="geometry">
            <mxPoint as="offset" />
          </mxGeometry>
        </mxCell>
        <mxCell id="of5xqRFu-SOXzQBDKbFj-58" style="edgeStyle=orthogonalEdgeStyle;rounded=0;orthogonalLoop=1;jettySize=auto;html=1;" edge="1" parent="1" source="of5xqRFu-SOXzQBDKbFj-49" target="of5xqRFu-SOXzQBDKbFj-50">
          <mxGeometry relative="1" as="geometry" />
        </mxCell>
        <mxCell id="of5xqRFu-SOXzQBDKbFj-49" value="获取所有热门直播间" style="rounded=0;whiteSpace=wrap;html=1;" vertex="1" parent="1">
          <mxGeometry x="325" y="1140" width="130" height="40" as="geometry" />
        </mxCell>
        <mxCell id="of5xqRFu-SOXzQBDKbFj-51" style="edgeStyle=orthogonalEdgeStyle;rounded=0;orthogonalLoop=1;jettySize=auto;html=1;" edge="1" parent="1" source="of5xqRFu-SOXzQBDKbFj-50">
          <mxGeometry relative="1" as="geometry">
            <mxPoint x="390" y="1360" as="targetPoint" />
          </mxGeometry>
        </mxCell>
        <mxCell id="of5xqRFu-SOXzQBDKbFj-50" value="对每个直播间做如下操作" style="rounded=0;whiteSpace=wrap;html=1;" vertex="1" parent="1">
          <mxGeometry x="310" y="1240" width="160" height="60" as="geometry" />
        </mxCell>
        <mxCell id="of5xqRFu-SOXzQBDKbFj-59" style="edgeStyle=orthogonalEdgeStyle;rounded=0;orthogonalLoop=1;jettySize=auto;html=1;entryX=0.5;entryY=0;entryDx=0;entryDy=0;" edge="1" parent="1" source="of5xqRFu-SOXzQBDKbFj-52" target="of5xqRFu-SOXzQBDKbFj-54">
          <mxGeometry relative="1" as="geometry" />
        </mxCell>
        <mxCell id="of5xqRFu-SOXzQBDKbFj-52" value="获取该直播间基本房间信息" style="rounded=0;whiteSpace=wrap;html=1;" vertex="1" parent="1">
          <mxGeometry x="310" y="1360" width="160" height="60" as="geometry" />
        </mxCell>
        <mxCell id="of5xqRFu-SOXzQBDKbFj-61" style="edgeStyle=orthogonalEdgeStyle;rounded=0;orthogonalLoop=1;jettySize=auto;html=1;entryX=0.5;entryY=0;entryDx=0;entryDy=0;" edge="1" parent="1" source="of5xqRFu-SOXzQBDKbFj-53" target="of5xqRFu-SOXzQBDKbFj-55">
          <mxGeometry relative="1" as="geometry" />
        </mxCell>
        <mxCell id="of5xqRFu-SOXzQBDKbFj-53" value="并发调用下游获取直播间可缓存模块内容" style="rounded=0;whiteSpace=wrap;html=1;" vertex="1" parent="1">
          <mxGeometry x="270" y="1600" width="240" height="60" as="geometry" />
        </mxCell>
        <mxCell id="of5xqRFu-SOXzQBDKbFj-60" style="edgeStyle=orthogonalEdgeStyle;rounded=0;orthogonalLoop=1;jettySize=auto;html=1;" edge="1" parent="1" source="of5xqRFu-SOXzQBDKbFj-54" target="of5xqRFu-SOXzQBDKbFj-53">
          <mxGeometry relative="1" as="geometry" />
        </mxCell>
        <mxCell id="of5xqRFu-SOXzQBDKbFj-54" value="填充getInfoByRoomRsp" style="rounded=0;whiteSpace=wrap;html=1;" vertex="1" parent="1">
          <mxGeometry x="310" y="1470" width="160" height="60" as="geometry" />
        </mxCell>
        <mxCell id="of5xqRFu-SOXzQBDKbFj-62" style="edgeStyle=orthogonalEdgeStyle;rounded=0;orthogonalLoop=1;jettySize=auto;html=1;entryX=0.5;entryY=1;entryDx=0;entryDy=0;" edge="1" parent="1" source="of5xqRFu-SOXzQBDKbFj-55" target="of5xqRFu-SOXzQBDKbFj-25">
          <mxGeometry relative="1" as="geometry">
            <Array as="points">
              <mxPoint x="390" y="1840" />
              <mxPoint x="590" y="1840" />
            </Array>
          </mxGeometry>
        </mxCell>
        <mxCell id="of5xqRFu-SOXzQBDKbFj-64" style="edgeStyle=orthogonalEdgeStyle;rounded=0;orthogonalLoop=1;jettySize=auto;html=1;entryX=0.5;entryY=1;entryDx=0;entryDy=0;" edge="1" parent="1" source="of5xqRFu-SOXzQBDKbFj-55" target="of5xqRFu-SOXzQBDKbFj-26">
          <mxGeometry relative="1" as="geometry">
            <Array as="points">
              <mxPoint x="390" y="1840" />
              <mxPoint x="750" y="1840" />
            </Array>
          </mxGeometry>
        </mxCell>
        <mxCell id="of5xqRFu-SOXzQBDKbFj-66" style="edgeStyle=orthogonalEdgeStyle;rounded=0;orthogonalLoop=1;jettySize=auto;html=1;entryX=0.5;entryY=1;entryDx=0;entryDy=0;" edge="1" parent="1" source="of5xqRFu-SOXzQBDKbFj-55" target="of5xqRFu-SOXzQBDKbFj-27">
          <mxGeometry relative="1" as="geometry">
            <Array as="points">
              <mxPoint x="390" y="1840" />
              <mxPoint x="950" y="1840" />
            </Array>
          </mxGeometry>
        </mxCell>
        <mxCell id="of5xqRFu-SOXzQBDKbFj-68" value="广播" style="edgeLabel;html=1;align=center;verticalAlign=middle;resizable=0;points=[];" vertex="1" connectable="0" parent="of5xqRFu-SOXzQBDKbFj-66">
          <mxGeometry x="-0.7736" y="-1" relative="1" as="geometry">
            <mxPoint as="offset" />
          </mxGeometry>
        </mxCell>
        <mxCell id="of5xqRFu-SOXzQBDKbFj-67" style="edgeStyle=orthogonalEdgeStyle;rounded=0;orthogonalLoop=1;jettySize=auto;html=1;entryX=0;entryY=0.5;entryDx=0;entryDy=0;" edge="1" parent="1" source="of5xqRFu-SOXzQBDKbFj-55" target="of5xqRFu-SOXzQBDKbFj-42">
          <mxGeometry relative="1" as="geometry">
            <Array as="points">
              <mxPoint x="230" y="1754" />
              <mxPoint x="230" y="1050" />
            </Array>
          </mxGeometry>
        </mxCell>
        <mxCell id="of5xqRFu-SOXzQBDKbFj-55" value="填充getInfoByRoomRsp" style="rounded=0;whiteSpace=wrap;html=1;" vertex="1" parent="1">
          <mxGeometry x="310" y="1724" width="160" height="60" as="geometry" />
        </mxCell>
        <mxCell id="of5xqRFu-SOXzQBDKbFj-89" style="edgeStyle=orthogonalEdgeStyle;rounded=0;orthogonalLoop=1;jettySize=auto;html=1;" edge="1" parent="1" source="of5xqRFu-SOXzQBDKbFj-69" target="of5xqRFu-SOXzQBDKbFj-70">
          <mxGeometry relative="1" as="geometry" />
        </mxCell>
        <mxCell id="of5xqRFu-SOXzQBDKbFj-69" value="等待6s" style="rounded=1;whiteSpace=wrap;html=1;" vertex="1" parent="1">
          <mxGeometry x="-120" y="280" width="120" height="60" as="geometry" />
        </mxCell>
        <mxCell id="of5xqRFu-SOXzQBDKbFj-91" style="edgeStyle=orthogonalEdgeStyle;rounded=0;orthogonalLoop=1;jettySize=auto;html=1;" edge="1" parent="1" source="of5xqRFu-SOXzQBDKbFj-70" target="of5xqRFu-SOXzQBDKbFj-71">
          <mxGeometry relative="1" as="geometry" />
        </mxCell>
        <mxCell id="of5xqRFu-SOXzQBDKbFj-70" value="创建一个异步协程" style="rounded=1;whiteSpace=wrap;html=1;" vertex="1" parent="1">
          <mxGeometry x="-140" y="410" width="160" height="70" as="geometry" />
        </mxCell>
        <mxCell id="of5xqRFu-SOXzQBDKbFj-92" style="edgeStyle=orthogonalEdgeStyle;rounded=0;orthogonalLoop=1;jettySize=auto;html=1;entryX=0.5;entryY=0;entryDx=0;entryDy=0;" edge="1" parent="1" source="of5xqRFu-SOXzQBDKbFj-71" target="of5xqRFu-SOXzQBDKbFj-72">
          <mxGeometry relative="1" as="geometry" />
        </mxCell>
        <mxCell id="of5xqRFu-SOXzQBDKbFj-71" value="获取热门房间(白名单与cdn在线人数超过1W取并集)" style="rounded=1;whiteSpace=wrap;html=1;" vertex="1" parent="1">
          <mxGeometry x="-225" y="540" width="330" height="60" as="geometry" />
        </mxCell>
        <mxCell id="of5xqRFu-SOXzQBDKbFj-88" style="edgeStyle=orthogonalEdgeStyle;rounded=0;orthogonalLoop=1;jettySize=auto;html=1;" edge="1" parent="1" source="of5xqRFu-SOXzQBDKbFj-72" target="of5xqRFu-SOXzQBDKbFj-73">
          <mxGeometry relative="1" as="geometry" />
        </mxCell>
        <mxCell id="of5xqRFu-SOXzQBDKbFj-72" value="串行遍历每个热门房间执行如下操作" style="rounded=1;whiteSpace=wrap;html=1;" vertex="1" parent="1">
          <mxGeometry x="-225" y="670" width="330" height="60" as="geometry" />
        </mxCell>
        <mxCell id="of5xqRFu-SOXzQBDKbFj-87" style="edgeStyle=orthogonalEdgeStyle;rounded=0;orthogonalLoop=1;jettySize=auto;html=1;" edge="1" parent="1" source="of5xqRFu-SOXzQBDKbFj-73" target="of5xqRFu-SOXzQBDKbFj-74">
          <mxGeometry relative="1" as="geometry" />
        </mxCell>
        <mxCell id="of5xqRFu-SOXzQBDKbFj-73" value="从缓存中获取该直播间信息" style="rounded=1;whiteSpace=wrap;html=1;" vertex="1" parent="1">
          <mxGeometry x="-225" y="830" width="330" height="60" as="geometry" />
        </mxCell>
        <mxCell id="of5xqRFu-SOXzQBDKbFj-76" style="edgeStyle=orthogonalEdgeStyle;rounded=0;orthogonalLoop=1;jettySize=auto;html=1;" edge="1" parent="1" source="of5xqRFu-SOXzQBDKbFj-74" target="of5xqRFu-SOXzQBDKbFj-75">
          <mxGeometry relative="1" as="geometry" />
        </mxCell>
        <mxCell id="of5xqRFu-SOXzQBDKbFj-83" value="否" style="edgeLabel;html=1;align=center;verticalAlign=middle;resizable=0;points=[];" vertex="1" connectable="0" parent="of5xqRFu-SOXzQBDKbFj-76">
          <mxGeometry x="-0.0222" y="-1" relative="1" as="geometry">
            <mxPoint as="offset" />
          </mxGeometry>
        </mxCell>
        <mxCell id="of5xqRFu-SOXzQBDKbFj-85" style="edgeStyle=orthogonalEdgeStyle;rounded=0;orthogonalLoop=1;jettySize=auto;html=1;exitX=1;exitY=0.5;exitDx=0;exitDy=0;entryX=1;entryY=0.5;entryDx=0;entryDy=0;" edge="1" parent="1" source="of5xqRFu-SOXzQBDKbFj-74" target="of5xqRFu-SOXzQBDKbFj-78">
          <mxGeometry relative="1" as="geometry">
            <Array as="points">
              <mxPoint x="100" y="1050" />
              <mxPoint x="100" y="1350" />
            </Array>
          </mxGeometry>
        </mxCell>
        <mxCell id="of5xqRFu-SOXzQBDKbFj-86" value="是" style="edgeLabel;html=1;align=center;verticalAlign=middle;resizable=0;points=[];" vertex="1" connectable="0" parent="of5xqRFu-SOXzQBDKbFj-85">
          <mxGeometry x="-0.7885" y="1" relative="1" as="geometry">
            <mxPoint as="offset" />
          </mxGeometry>
        </mxCell>
        <mxCell id="of5xqRFu-SOXzQBDKbFj-74" value="不存在或者过期" style="rhombus;whiteSpace=wrap;html=1;" vertex="1" parent="1">
          <mxGeometry x="-145" y="1010" width="170" height="80" as="geometry" />
        </mxCell>
        <mxCell id="of5xqRFu-SOXzQBDKbFj-84" style="edgeStyle=orthogonalEdgeStyle;rounded=0;orthogonalLoop=1;jettySize=auto;html=1;exitX=0;exitY=0.5;exitDx=0;exitDy=0;" edge="1" parent="1" source="of5xqRFu-SOXzQBDKbFj-75">
          <mxGeometry relative="1" as="geometry">
            <mxPoint x="-300" y="1210" as="targetPoint" />
          </mxGeometry>
        </mxCell>
        <mxCell id="of5xqRFu-SOXzQBDKbFj-75" value="跳过什么也不做" style="rounded=0;whiteSpace=wrap;html=1;" vertex="1" parent="1">
          <mxGeometry x="-120" y="1180" width="120" height="60" as="geometry" />
        </mxCell>
        <mxCell id="of5xqRFu-SOXzQBDKbFj-94" style="edgeStyle=orthogonalEdgeStyle;rounded=0;orthogonalLoop=1;jettySize=auto;html=1;entryX=0.5;entryY=0;entryDx=0;entryDy=0;" edge="1" parent="1" source="of5xqRFu-SOXzQBDKbFj-78" target="of5xqRFu-SOXzQBDKbFj-93">
          <mxGeometry relative="1" as="geometry" />
        </mxCell>
        <mxCell id="of5xqRFu-SOXzQBDKbFj-78" value="并调用下游获取可缓存模块内容" style="rounded=0;whiteSpace=wrap;html=1;" vertex="1" parent="1">
          <mxGeometry x="-160" y="1320" width="200" height="60" as="geometry" />
        </mxCell>
        <mxCell id="of5xqRFu-SOXzQBDKbFj-95" style="edgeStyle=orthogonalEdgeStyle;rounded=0;orthogonalLoop=1;jettySize=auto;html=1;entryX=0;entryY=0.5;entryDx=0;entryDy=0;" edge="1" parent="1" source="of5xqRFu-SOXzQBDKbFj-93" target="of5xqRFu-SOXzQBDKbFj-69">
          <mxGeometry relative="1" as="geometry">
            <Array as="points">
              <mxPoint x="-300" y="1480" />
              <mxPoint x="-300" y="310" />
            </Array>
          </mxGeometry>
        </mxCell>
        <mxCell id="of5xqRFu-SOXzQBDKbFj-99" style="edgeStyle=orthogonalEdgeStyle;rounded=0;orthogonalLoop=1;jettySize=auto;html=1;entryX=0;entryY=0.5;entryDx=0;entryDy=0;" edge="1" parent="1" source="of5xqRFu-SOXzQBDKbFj-93" target="of5xqRFu-SOXzQBDKbFj-7">
          <mxGeometry relative="1" as="geometry">
            <Array as="points">
              <mxPoint x="130" y="1480" />
              <mxPoint x="130" y="406" />
            </Array>
          </mxGeometry>
        </mxCell>
        <mxCell id="of5xqRFu-SOXzQBDKbFj-100" style="edgeStyle=orthogonalEdgeStyle;rounded=0;orthogonalLoop=1;jettySize=auto;html=1;entryX=0;entryY=0.5;entryDx=0;entryDy=0;" edge="1" parent="1" source="of5xqRFu-SOXzQBDKbFj-93" target="of5xqRFu-SOXzQBDKbFj-17">
          <mxGeometry relative="1" as="geometry">
            <Array as="points">
              <mxPoint x="130" y="1480" />
              <mxPoint x="130" y="636" />
            </Array>
          </mxGeometry>
        </mxCell>
        <mxCell id="of5xqRFu-SOXzQBDKbFj-93" value="填充getInfoByRoomRsp" style="rounded=0;whiteSpace=wrap;html=1;" vertex="1" parent="1">
          <mxGeometry x="-160" y="1450" width="200" height="60" as="geometry" />
        </mxCell>
        <mxCell id="of5xqRFu-SOXzQBDKbFj-104" value="写入本地缓存并续期6s" style="text;html=1;align=center;verticalAlign=middle;resizable=0;points=[];autosize=1;strokeColor=none;fillColor=none;" vertex="1" parent="1">
          <mxGeometry x="50" y="1485" width="140" height="30" as="geometry" />
        </mxCell>
      </root>
    </mxGraphModel>
  </diagram>
</mxfile>
